<svg id="Слой_1" data-name="Слой 1" xmlns="http://www.w3.org/2000/svg" viewBox="0 0 18 18"><defs><style>.cls-1{fill:#8e8e93;}</style></defs><path class="cls-1" d="M16.2,4.83H13.89C13.18,2,11.26,0,9,0S4.82,2,4.11,4.83H1.8A1.81,1.81,0,0,0,0,6.63V13.8A4.2,4.2,0,0,0,4.2,18h9.6A4.2,4.2,0,0,0,18,13.8V6.63A1.81,1.81,0,0,0,16.2,4.83ZM9,1.42c1.66,0,3.08,1.41,3.69,3.41H5.31C5.92,2.83,7.34,1.42,9,1.42Zm7.6,12.2a3,3,0,0,1-3,3H4.38a3,3,0,0,1-3-3V6.81a.6.6,0,0,1,.6-.6H3.87c0,.33-.06.67-.06,1a.6.6,0,1,0,1.2,0C5,7.15,5,7.07,5,7c0-.27,0-.53,0-.78H13c0,.25,0,.51,0,.78,0,.08,0,.16,0,.23a.6.6,0,1,0,1.2,0c0-.34,0-.68-.06-1H16a.6.6,0,0,1,.6.6Z"/></svg>