<svg width="94" height="16" viewBox="0 0 94 16" fill="none" xmlns="http://www.w3.org/2000/svg">
<path d="M9 0L11.116 5.41115L17.5595 5.52786L12.4238 8.98885L14.2901 14.4721L9 11.2L3.70993 14.4721L5.5762 8.98885L0.440492 5.52786L6.88397 5.41115L9 0Z" fill="black"/>
<path d="M47 0L49.116 5.41115L55.5595 5.52786L50.4238 8.98885L52.2901 14.4721L47 11.2L41.7099 14.4721L43.5762 8.98885L38.4405 5.52786L44.884 5.41115L47 0Z" fill="black"/>
<path d="M28 0L30.116 5.41115L36.5595 5.52786L31.4238 8.98885L33.2901 14.4721L28 11.2L22.7099 14.4721L24.5762 8.98885L19.4405 5.52786L25.884 5.41115L28 0Z" fill="black"/>
<path d="M66 0L68.116 5.41115L74.5595 5.52786L69.4238 8.98885L71.2901 14.4721L66 11.2L60.7099 14.4721L62.5762 8.98885L57.4405 5.52786L63.884 5.41115L66 0Z" fill="black"/>
<path d="M85 0L87.116 5.41115L93.5595 5.52786L88.4238 8.98885L90.2901 14.4721L85 11.2L79.7099 14.4721L81.5762 8.98885L76.4405 5.52786L82.884 5.41115L85 0Z" fill="black"/>
</svg>
