<svg xmlns="http://www.w3.org/2000/svg" height="1200" width="1600" version="1.1" xmlns:xlink="http://www.w3.org/1999/xlink" xmlns:svgjs="http://svgjs.com/svgjs"><rect fill="#f3ebe9" width="1600" height="1200"></rect><g><path d="M1393.86 436.19C1347.18 296.79 1249.5 203.09 1125.8 168.81 998.51 133.57 866.68 136 737.54 154.23 616.41 171.37 479.35 186.19 370.76 256.07 286.34 310.52 212.72 403.98 190.82 517.13 166.35 643.88 201.93 778.18 265.27 881.48 297.45 933.86 335.8 980.53 384.85 1010.55 431.94 1039.47 482.74 1054.67 535.59 1058.19 589.98 1061.72 645.61 1049.93 696.41 1027.44 746.89 1004.96 794.3 975.31 843.55 950.03 870.59 937.14 898.35 926.33 927.15 920.49 945.86 918.43 964.47 918.79 983.18 921.22 1043.54 932.53 1102.56 956.95 1164.26 955.74 1239.32 954.28 1301.32 914.66 1345.95 844.54 1417.51 731.63 1437.77 567.08 1393.86 436.19Z" fill="#efdcd7" opacity="1" stroke-width="4" stroke="#00000000"></path></g><g><path d="M1167.48 800.63C1196.95 826.6 1251.57 861.67 1297.31 831.9 1297.31 831.9 1252.32 890.69 1275.22 918.15 1305.14 954.11 1393.19 856.37 1379.98 839.58 1366.4 822.42 1336.04 899.2 1351.93 941.88 1364.46 975.45 1424.3 925.09 1433.93 895.32" stroke="#000000" stroke-width="4" stroke-linecap="round" stroke-linejoin="round" opacity="1" fill="none"></path></g><g><path d="M880.1 864.55H1059.57L1079.97 670.69H859.7L880.1 864.55Z" fill="#ffc930" opacity="1" stroke-width="4" stroke="#00000000"></path><path d="M880.1 864.55H950.3L898.77 670.69H859.7L880.1 864.55Z" fill="#ffc93000" opacity="0" stroke="#00000000" stroke-width="4"></path><path d="M837.8 636.13H1101.87V713.63H837.8V636.13Z" fill="#ffc930" opacity="1" stroke-width="4" stroke="#00000000"></path><path d="M821.77 580.01C781.32 567.15 756.2 532.54 765.69 502.7 775.18 472.88 815.65 459.12 856.09 471.98 896.56 484.84 921.66 519.45 912.19 549.27 902.7 579.11 862.21 592.85 821.77 580.01Z" fill="#ffc930" opacity="1" stroke-width="4" stroke="#00000000"></path><path d="M1077.35 578.2C1028.83 565.52 998.28 521.66 1009.12 480.24 1019.94 438.83 1068.07 415.56 1116.59 428.27 1165.11 440.96 1195.66 484.82 1184.82 526.23 1173.98 567.64 1125.87 590.91 1077.35 578.2Z" fill="#ffc930" opacity="1" stroke-width="4" stroke="#00000000"></path><path d="M863.57 368.07C847.23 313.69 869.96 258.78 914.36 245.42 958.76 232.07 1008 265.35 1024.34 319.75 1040.7 374.13 1017.97 429.04 973.57 442.4 929.17 455.75 879.92 422.47 863.57 368.07Z" fill="#ffc930" opacity="1" stroke-width="4" stroke="#00000000"></path><path d="M915.95 246.69C974.56 422.09 970.91 636.13 970.91 636.13" stroke="#000000" stroke-width="4" stroke-linecap="round" stroke-linejoin="round" opacity="1" fill="none"></path><path d="M766.53 503.47C917.45 523.87 968.33 580.97 968.33 580.97" stroke="#000000" stroke-width="4" stroke-linecap="round" stroke-linejoin="round" opacity="1" fill="none"></path><path d="M864.21 713.63H1075.46" stroke="#00000000" stroke-width="4" stroke-linecap="round" stroke-linejoin="round" opacity="1" fill="none"></path><path d="M1184.73 527.09C1068.37 450.66 968.33 492.09 968.33 492.09" stroke="#000000" stroke-width="4" stroke-linecap="round" stroke-linejoin="round" opacity="1" fill="none"></path></g><g><path d="M1276.86 493.71C1333.76 493.71 1379.87 447.59 1379.87 390.69 1379.87 333.8 1333.76 287.68 1276.86 287.68 1219.96 287.68 1173.84 333.8 1173.84 390.69 1173.84 447.59 1219.96 493.71 1276.86 493.71Z" fill="#ffffff" opacity="1" stroke-width="4" stroke="#00000000"></path><path d="M1259.38 442.74V346.66H1294.6C1307.81 346.66 1318.62 357.47 1318.62 370.68 1318.62 383.89 1307.81 394.7 1294.6 394.7H1243.23" stroke="#b1b1b1" stroke-width="4" stroke-linecap="round" stroke-linejoin="round" opacity="1" fill="none"></path><path d="M1243.23 415.25H1295.27" stroke="#b1b1b1" stroke-width="4" stroke-linecap="round" stroke-linejoin="round" opacity="1" fill="none"></path></g><g><path d="M375.62 232.35C389.81 295.97 377.43 372.51 351.54 375.59 326.97 378.55 318.82 316.92 326.24 300.86 331.86 288.73 342.6 301.1 331.8 326.82 321.9 350.3 292.92 398.41 265.76 397.2 238.6 395.99 262.08 347.16 262.08 347.16L155.23 386.7" stroke="#000000" stroke-width="4" stroke-linecap="round" stroke-linejoin="round" opacity="1" fill="none"></path></g><g><path d="M716.93 222.04C718.17 232.19 716.17 250.72 697.67 257.01 679.32 263.18 670.08 260.14 654.65 273.45 641.21 284.95 642.08 308.7 642.08 308.7L686.92 319.82C686.92 319.82 687.35 303.03 697.22 294.89 714.75 280.49 735.87 288.99 752.06 269.33 764.35 254.38 761.99 234.03 761.99 234.03L716.93 222.04Z" fill="#ffffff" opacity="1" stroke-width="4" stroke="#00000000"></path></g><g><path d="M1176.11 940.26C1166.33 944.37 1147.29 947.62 1135.78 930.96 1124.43 914.41 1124.84 904.33 1107.19 892.72 1091.92 882.58 1068.49 890.18 1068.49 890.18L1070.1 938.04C1070.1 938.04 1086.97 933.71 1097.88 941.25 1117.2 954.64 1114.71 978.11 1138.91 988.68 1157.3 996.7 1176.91 988.58 1176.91 988.58L1176.11 940.26Z" fill="#ffffff" opacity="1" stroke-width="4" stroke="#00000000"></path></g><g><path d="M466.56 362.01C511.48 360.24 515.9 341.67 533.05 367.49 535.18 370.68 560.82 366.79 562.59 371.03 568.07 385.89 570.9 408.17 573.91 428.15 573.91 428.15 589.82 431.34 591.06 438.06 592.3 445.84 578.33 456.8 578.33 456.8 584.16 475.02 586.99 495.89 573.73 514.46 554.63 541.34 505.99 534.26 505.99 534.26L505.46 546.64 460.72 569.1 385.38 546.64 385.03 536.74C389.45 498.19 402.01 427.98 402.01 407.64 402.01 351.93 414.92 363.96 466.56 362.01Z" fill="#eaa58b" opacity="1" stroke-width="4" stroke="#00000000"></path><path d="M505.82 534.26L505.29 546.64 485.48 562.74 465.67 534.44C462.14 529.31 467.26 522.94 473.1 525.07L505.82 534.26Z" fill="#eaa58b00" opacity="0" stroke="#00000000" stroke-width="4"></path><path d="M557.28 360.6C539.95 334.6 510.95 321.16 465.5 322.93 413.5 324.87 382.2 355.47 382.02 411.53 382.02 431.34 383.79 498.19 385.03 536.74 385.03 536.74 425.71 536.21 443.57 513.04 443.57 513.04 406.07 477.32 423.94 450.61 441.8 423.91 482.83 455.92 482.83 455.92 509.89 443.19 500.16 416.3 497.68 410.64 497.51 410.29 497.86 409.76 498.39 409.94 506.17 412.41 552.51 424.97 540.3 381.99 540.13 381.46 540.48 381.11 541.01 381.11 558.17 380.76 562.59 371.03 562.59 371.03 561.17 367.32 559.23 363.96 557.28 360.6Z" fill="#c65a42" opacity="1" stroke-width="4" stroke="#00000000"></path><path d="M562.41 471.3C549.85 473.43 542.78 462.82 542.78 462.82" stroke="#00000000" stroke-width="4" stroke-linecap="round" stroke-linejoin="round" opacity="1" fill="#ffffff00"></path><path d="M505.82 534.26L477.17 526.3" stroke="#00000000" stroke-width="4" stroke-linecap="round" stroke-linejoin="round" opacity="1" fill="none"></path><path d="M469.92 480.32L454.53 473.43" stroke="#00000000" stroke-width="4" stroke-linecap="round" stroke-linejoin="round" opacity="1" fill="#ffffff00"></path><path d="M552.51 434.52C555.53 434.52 557.99 432.06 557.99 429.04 557.99 426.01 555.53 423.55 552.51 423.55 549.48 423.55 547.02 426.01 547.02 429.04 547.02 432.06 549.48 434.52 552.51 434.52Z" fill="#231f2000" opacity="1" stroke-width="4" stroke="#ffffff00"></path><path d="M689.92 752.85C659.15 767.35 634.74 779.38 634.74 779.38 634.74 779.38 618.83 690.95 599.37 641.43 579.92 591.92 551.62 565.39 505.64 561.85L505.29 546.64H385.38V563.27C329.32 570.52 295.19 646.56 272.2 727.91 256.81 782.56 249.74 855.6 276.8 902.11 296.43 936.07 347.54 927.93 355.85 889.55L538.71 889.91C538.71 889.91 567.54 929.52 627.67 922.45 663.39 918.2 714.68 888.67 755.35 861.79L759.95 856.48 707.07 752.14 689.92 752.85Z" fill="#ff4f32" opacity="1" stroke-width="4" stroke="#00000000"></path><path d="M293.95 918.73C294.13 918.73 294.13 918.91 294.31 918.91 313.76 929.7 345.59 921.56 354.97 893.27L355.85 889.38 344.88 806.43C328.97 806.43 335.87 839.33 327.02 881.77 319.42 918.56 293.95 918.73 293.95 918.73Z" fill="#ff4f3200" opacity="0" stroke="#00000000" stroke-width="4"></path><path d="M538.71 889.91C521.73 859.67 498.57 804.14 486.19 735.16" stroke="#000000" stroke-width="4" stroke-linecap="round" stroke-linejoin="round" opacity="1" fill="none"></path><path d="M340.11 771.06L355.85 889.55" stroke="#000000" stroke-width="4" stroke-linecap="round" stroke-linejoin="round" opacity="1" fill="none"></path><path d="M634.74 779.38L616.7 817.58" stroke="#000000" stroke-width="4" stroke-linecap="round" stroke-linejoin="round" opacity="1" fill="none"></path><path d="M312.87 843.04L348.78 835.97" stroke="#000000" stroke-width="4" stroke-linecap="round" stroke-linejoin="round" opacity="1" fill="none"></path><path d="M856.86 728.8L839.36 746.31C838.65 747.01 837.59 747.72 836.53 747.9 831.75 748.96 817.6 751.96 804.52 751.08 799.74 750.73 797.27 745.24 800.1 741.53 808.23 730.57 820.79 711.29 813.36 705.1 806.82 699.62 739.97 729.33 689.92 752.85L755.35 861.79C783.12 843.4 805.76 826.6 815.13 820.05 828.75 810.15 839.36 796.35 844.84 780.26 845.02 779.55 845.37 779.02 845.72 778.49 849.44 773.89 868.36 749.14 866.95 732.33 866.59 727.38 860.4 725.26 856.86 728.8Z" fill="#eaa58b" opacity="1" stroke-width="4" stroke="#00000000"></path><path d="M538.71 889.91C509.18 843.22 490.08 754.62 490.08 754.62H488.13C476.11 757.62 470.45 765.41 467.09 786.8 463.37 815.81 454.18 867.09 431.54 889.73L538.71 889.91Z" fill="#ff4f3200" opacity="0" stroke="#00000000" stroke-width="4"></path><path d="M845.19 779.38C832.81 788.22 798.68 786.45 798.68 786.45" stroke="#000000" stroke-width="4" stroke-linecap="round" stroke-linejoin="round" opacity="1" fill="none"></path><path d="M827.68 809.09C811.59 814.75 790.37 814.75 790.37 814.75" stroke="#000000" stroke-width="4" stroke-linecap="round" stroke-linejoin="round" opacity="1" fill="none"></path><path d="M800.1 741.53L779.76 765.23" stroke="#000000" stroke-width="4" stroke-linecap="round" stroke-linejoin="round" opacity="1" fill="none"></path></g></svg>