<svg width="20" height="20" viewBox="0 0 20 20" fill="none" xmlns="http://www.w3.org/2000/svg">
<g clip-path="url(#clip0_1327_1440)">
<path d="M4.85211 19.6796C4.66756 19.417 4.57604 19.1002 4.59211 18.7796V16.2663H4.15211C3.36311 16.2902 2.58094 16.1136 1.87878 15.7529C1.26248 15.4119 0.770042 14.8845 0.47211 14.2463C0.137575 13.4892 -0.0241182 12.667 -0.001223 11.8396V4.42627C-0.0271143 3.59215 0.134643 2.76286 0.47211 1.99961C0.774639 1.37127 1.26662 0.853648 1.87878 0.519606C2.57878 0.152447 3.3621 -0.0267289 4.15211 -0.000394092H15.8454C16.6355 -0.0267289 17.4188 0.152447 18.1188 0.519606C18.7304 0.852204 19.2206 1.37044 19.5188 1.99961C19.8619 2.76127 20.0261 3.59135 19.9988 4.42627V11.8396C20.023 12.6678 19.8589 13.4907 19.5188 14.2463C19.2226 14.8835 18.7326 15.4108 18.1188 15.7529C17.4166 16.1136 16.6344 16.2902 15.8454 16.2663H9.99878L6.86544 19.2396C6.65492 19.446 6.4323 19.6397 6.19878 19.8196C6.01665 19.9457 5.80032 20.0132 5.57878 20.0129C5.43979 20.0198 5.3012 19.9931 5.17471 19.9351C5.04823 19.877 4.93758 19.7894 4.85211 19.6796V19.6796ZM8.85211 15.1663C8.97864 15.0055 9.14376 14.8794 9.33211 14.7996C9.532 14.7342 9.74194 14.7048 9.95211 14.7129H15.8321C16.1984 14.7388 16.5659 14.6869 16.9107 14.5605C17.2554 14.4341 17.5694 14.2361 17.8321 13.9796C18.3179 13.3715 18.556 12.6024 18.4988 11.8263V4.42627C18.5552 3.6543 18.317 2.88961 17.8321 2.28627C17.5691 2.0306 17.2548 1.83362 16.9101 1.70836C16.5653 1.5831 16.1979 1.5324 15.8321 1.55961H4.15211C3.78091 1.52798 3.40725 1.5765 3.05644 1.70188C2.70563 1.82725 2.38585 2.02655 2.11878 2.28627C1.63684 2.89118 1.39899 3.65468 1.45211 4.42627V11.8263C1.39821 12.602 1.63597 13.37 2.11878 13.9796C2.38527 14.2405 2.70478 14.4411 3.05562 14.5676C3.40646 14.6941 3.78042 14.7437 4.15211 14.7129H5.27211C5.46193 14.6944 5.65134 14.752 5.79878 14.8729C5.91483 15.0354 5.96919 15.234 5.95211 15.4329V18.2396L8.85211 15.1663Z" fill="black"/>
</g>
<defs>
<clipPath id="clip0_1327_1440">
<rect width="20" height="20" fill="white"/>
</clipPath>
</defs>
</svg>
