<svg id="Слой_1" data-name="Слой 1" xmlns="http://www.w3.org/2000/svg" viewBox="0 0 18 18"><path d="M6,11H6a.69.69,0,0,1-.69.69H.69A.69.69,0,0,1,0,11H0a.69.69,0,0,1,.69-.69H5.31A.69.69,0,0,1,6,11Z"/><path d="M4.27,8.43h0a.69.69,0,0,1-.67.69H.69A.69.69,0,0,1,0,8.43H0a.69.69,0,0,1,.69-.69H3.58a.69.69,0,0,1,.69.69Z"/><path d="M3.61,5.86h0a.69.69,0,0,1-.69.69H.7A.7.7,0,0,1,0,5.87H0a.69.69,0,0,1,.69-.69H2.92A.69.69,0,0,1,3.61,5.86Z"/><path d="M17.87,16.91,13.53,10.5A5.86,5.86,0,1,0,10,11.68a5.68,5.68,0,0,0,2.34-.49l4.39,6.48a.67.67,0,0,0,.93.23l.07,0a.68.68,0,0,0,.15-.95ZM5.54,5.86A4.47,4.47,0,1,1,10,10.3h0A4.44,4.44,0,0,1,5.54,5.86Z"/></svg>