<svg id="Слой_1" data-name="Слой 1" xmlns="http://www.w3.org/2000/svg" viewBox="0 0 18 18"><path d="M.38,3.53A5.67,5.67,0,0,1,1.47,1.66,4.78,4.78,0,0,1,5.14,0,4.4,4.4,0,0,1,7.4.6,4.74,4.74,0,0,1,9,2.18,4.68,4.68,0,0,1,10.61.6,4.24,4.24,0,0,1,12.86,0a4.84,4.84,0,0,1,3.68,1.66,5.83,5.83,0,0,1,1.08,1.87A7.22,7.22,0,0,1,18,5.93a9.16,9.16,0,0,1-1,4.14,16.52,16.52,0,0,1-2.89,4,30.18,30.18,0,0,1-4.43,3.7,1.74,1.74,0,0,1-.33.18A.83.83,0,0,1,9,18a1.16,1.16,0,0,1-.32-.08,1.74,1.74,0,0,1-.33-.18A29.34,29.34,0,0,1,3.92,14,16,16,0,0,1,1,10,9.19,9.19,0,0,1,0,5.92,7.2,7.2,0,0,1,.38,3.53ZM2.06,8.68A13.25,13.25,0,0,0,3.71,11.4,20.83,20.83,0,0,0,6.08,14a26.38,26.38,0,0,0,2.74,2.2.57.57,0,0,0,.18.12.76.76,0,0,0,.19-.12A27.77,27.77,0,0,0,11.93,14a20.41,20.41,0,0,0,2.36-2.56A13.13,13.13,0,0,0,15.94,8.7a6.92,6.92,0,0,0,.6-2.76,5.25,5.25,0,0,0-.48-2.28,3.7,3.7,0,0,0-1.3-1.5,3.38,3.38,0,0,0-1.88-.54A3.05,3.05,0,0,0,11.4,2a3.68,3.68,0,0,0-1.06.82,8.07,8.07,0,0,0-.74,1,3.09,3.09,0,0,1-.33.39A.5.5,0,0,1,9,4.2a.51.51,0,0,1-.29-.1,2.31,2.31,0,0,1-.31-.39,5.13,5.13,0,0,0-.73-1,3.66,3.66,0,0,0-1.07-.8,3.17,3.17,0,0,0-1.48-.33,3.38,3.38,0,0,0-1.88.54,3.83,3.83,0,0,0-1.3,1.52,5.11,5.11,0,0,0-.48,2.28A6.92,6.92,0,0,0,2.06,8.68Z"/></svg>